<?xml version="1.0" encoding="UTF-8"?>
<!DOCTYPE svg PUBLIC "-//W3C//DTD SVG 1.1//EN" "http://www.w3.org/Graphics/SVG/1.1/DTD/svg11.dtd">
<!-- Creator: CorelDRAW X8 -->
<svg xmlns="http://www.w3.org/2000/svg" xml:space="preserve" width="210mm" height="297mm" version="1.1" style="shape-rendering:geometricPrecision; text-rendering:geometricPrecision; image-rendering:optimizeQuality; fill-rule:evenodd; clip-rule:evenodd"
viewBox="0 0 21000 29700"
 xmlns:xlink="http://www.w3.org/1999/xlink">
 <defs>
  <style type="text/css">
   <![CDATA[
    .str0 {stroke:#332C2B;stroke-width:20}
    .fil0 {fill:black}
   ]]>
  </style>
 </defs>
 <g id="Layer_x0020_1">
  <metadata id="CorelCorpID_0Corel-Layer"/>
  <path class="fil0 str0" d="M1280 21671l20304 0c177,0 322,145 322,322l0 1518c0,177 -145,322 -322,322l-20304 0c-177,0 -322,-145 -322,-322l0 -1518c0,-177 145,-322 322,-322zm0 -15431l20304 0c177,0 322,145 322,322l0 1517c0,178 -145,323 -322,323l-20304 0c-177,0 -322,-145 -322,-323l0 -1517c0,-177 145,-322 322,-322zm0 7827l20304 0c177,0 322,145 322,322l0 1518c0,177 -145,322 -322,322l-20304 0c-177,0 -322,-145 -322,-322l0 -1518c0,-177 145,-322 322,-322z"/>
 </g>
</svg>
