<?xml version="1.0" encoding="UTF-8"?>
<!DOCTYPE svg PUBLIC "-//W3C//DTD SVG 1.1//EN" "http://www.w3.org/Graphics/SVG/1.1/DTD/svg11.dtd">
<!-- Creator: CorelDRAW X8 -->
<svg xmlns="http://www.w3.org/2000/svg" xml:space="preserve" width="210mm" height="297mm" version="1.1" style="shape-rendering:geometricPrecision; text-rendering:geometricPrecision; image-rendering:optimizeQuality; fill-rule:evenodd; clip-rule:evenodd"
viewBox="0 0 21000 29700"
 xmlns:xlink="http://www.w3.org/1999/xlink">
 <defs>
  <style type="text/css">
   <![CDATA[
    .fil0 {fill:#332C2B;fill-rule:nonzero}
   ]]>
  </style>
 </defs>
 <g id="Layer_x0020_1">
  <metadata id="CorelCorpID_0Corel-Layer"/>
  <path class="fil0" d="M6667 15168c-533,0 -914,-182 -1143,-548 -229,-365 -343,-820 -343,-1365 0,-594 111,-1300 334,-2117 223,-818 517,-1678 882,-2582 366,-904 765,-1786 1198,-2647 434,-861 867,-1644 1301,-2350 433,-705 832,-1269 1198,-1690 365,-421 653,-631 863,-631 136,0 248,77 335,232 86,155 154,340 204,557 49,217 74,412 74,585 0,334 -83,771 -251,1310 -167,538 -402,1139 -705,1801 -304,663 -663,1331 -1078,2006 -415,675 -866,1322 -1356,1941 -489,619 -1006,1152 -1551,1598 -74,334 -133,659 -176,975 -43,316 -65,616 -65,901 0,483 68,842 204,1077 137,235 341,353 613,353 335,0 666,-149 994,-446 328,-297 638,-672 929,-1124 291,-452 541,-919 752,-1402l279 149c-496,1052 -1034,1885 -1616,2498 -582,613 -1208,919 -1876,919zm130 -4532c433,-433 854,-932 1263,-1495 408,-564 789,-1149 1142,-1755 353,-607 666,-1195 938,-1765 272,-569 483,-1080 631,-1532 149,-452 223,-802 223,-1050 0,-123 -15,-204 -46,-241 -31,-37 -59,-56 -84,-56 -99,0 -269,158 -510,474 -242,316 -524,740 -846,1272 -322,533 -650,1139 -984,1820 -334,681 -653,1393 -957,2136 -303,743 -560,1474 -770,2192zm4662 4922c-582,0 -1044,-127 -1384,-381 -341,-253 -582,-566 -724,-938 -143,-371 -214,-743 -214,-1114 0,-371 49,-656 149,-854 99,-199 219,-347 362,-446 142,-99 278,-174 408,-223 130,-50 220,-99 270,-149 371,-408 712,-835 1021,-1281 310,-446 582,-917 818,-1412l0 -223c0,-458 77,-783 232,-975 154,-192 319,-288 492,-288 99,0 173,25 223,75 49,49 74,105 74,167 0,62 -18,161 -56,297 -37,136 -55,309 -55,520 0,409 80,851 241,1328 161,477 322,978 483,1504 161,527 241,1075 241,1644 0,161 -9,319 -27,474 -19,155 -47,300 -84,436 433,-74 842,-269 1226,-585 384,-315 755,-820 1114,-1513l168 185c-236,681 -589,1198 -1059,1551 -471,353 -985,573 -1542,660 -198,532 -511,922 -938,1170 -427,247 -907,371 -1439,371zm37 -650c148,0 347,-49 594,-148 248,-100 440,-353 576,-762 -520,-99 -981,-303 -1384,-613 -402,-310 -702,-619 -901,-929 -272,13 -408,229 -408,650 0,446 133,858 399,1236 266,377 641,566 1124,566zm1263 -1207c25,-124 43,-254 56,-390 12,-136 18,-297 18,-483 0,-582 -71,-1161 -213,-1737 -143,-576 -264,-1117 -363,-1625 -284,470 -585,919 -900,1347 -316,427 -616,783 -901,1068 185,396 473,767 863,1114 390,347 870,582 1440,706z"/>
 </g>
</svg>
