<?xml version="1.0" encoding="UTF-8"?>
<!DOCTYPE svg PUBLIC "-//W3C//DTD SVG 1.1//EN" "http://www.w3.org/Graphics/SVG/1.1/DTD/svg11.dtd">
<!-- Creator: CorelDRAW X8 -->
<svg xmlns="http://www.w3.org/2000/svg" xml:space="preserve" width="210mm" height="297mm" version="1.1" style="shape-rendering:geometricPrecision; text-rendering:geometricPrecision; image-rendering:optimizeQuality; fill-rule:evenodd; clip-rule:evenodd"
viewBox="0 0 21000 29700"
 xmlns:xlink="http://www.w3.org/1999/xlink">
 <defs>
  <style type="text/css">
   <![CDATA[
    .str0 {stroke:#332C2B;stroke-width:423.33}
    .fil0 {fill:none}
   ]]>
  </style>
 </defs>
 <g id="Layer_x0020_1">
  <metadata id="CorelCorpID_0Corel-Layer"/>
  <path class="fil0 str0" d="M2960 6091l4437 0c77,0 139,62 139,138l0 3591c0,77 -62,139 -139,139l-4437 0c-76,0 -138,-62 -138,-139l0 -3591c0,-76 62,-138 138,-138zm5666 4994l4437 0c76,0 139,63 139,139l0 3591c0,76 -63,139 -139,139l-4437 0c-76,0 -139,-63 -139,-139l0 -3591c0,-76 63,-139 139,-139zm-5666 0l4437 0c77,0 139,63 139,139l0 3591c0,76 -62,139 -139,139l-4437 0c-76,0 -138,-63 -138,-139l0 -3591c0,-76 62,-139 138,-139zm5666 -4994l4437 0c76,0 139,62 139,138l0 3591c0,77 -63,139 -139,139l-4437 0c-76,0 -139,-62 -139,-139l0 -3591c0,-76 63,-138 139,-138z"/>
 </g>
</svg>
