<?xml version="1.0" encoding="UTF-8"?>
<!DOCTYPE svg PUBLIC "-//W3C//DTD SVG 1.1//EN" "http://www.w3.org/Graphics/SVG/1.1/DTD/svg11.dtd">
<!-- Creator: CorelDRAW X8 -->
<svg xmlns="http://www.w3.org/2000/svg" xml:space="preserve" width="210mm" height="297mm" version="1.1" style="shape-rendering:geometricPrecision; text-rendering:geometricPrecision; image-rendering:optimizeQuality; fill-rule:evenodd; clip-rule:evenodd"
viewBox="0 0 21000 29700"
 xmlns:xlink="http://www.w3.org/1999/xlink">
 <defs>
  <style type="text/css">
   <![CDATA[
    .str1 {stroke:#332C2B;stroke-width:253.99}
    .str0 {stroke:#332C2B;stroke-width:423.33}
    .fil0 {fill:none}
    .fil1 {fill:#332C2B}
   ]]>
  </style>
 </defs>
 <g id="Layer_x0020_1">
  <metadata id="CorelCorpID_0Corel-Layer"/>
  <path class="fil0 str0" d="M10350 4718c2775,0 5024,2250 5024,5024 0,2775 -2249,5024 -5024,5024 -2775,0 -5024,-2249 -5024,-5024 0,-2774 2249,-5024 5024,-5024z"/>
  <path class="fil0 str0" d="M906 9742l4205 -3154c-696,862 -1113,1960 -1113,3154 0,1195 417,2292 1113,3154l-4205 -3154z"/>
  <path class="fil0 str0" d="M19936 9671l-4206 -3154c697,863 1114,1960 1114,3154 0,1195 -417,2292 -1114,3154l4206 -3154z"/>
  <path class="fil1 str1" d="M10348 5466c232,0 421,1222 421,2730 0,1508 -189,2730 -421,2730 -232,0 -420,-1222 -420,-2730 0,-1508 188,-2730 420,-2730z"/>
  <path class="fil1 str1" d="M10352 10506c232,0 420,753 420,1682 0,929 -188,1682 -420,1682 -232,0 -421,-753 -421,-1682 0,-929 189,-1682 421,-1682z"/>
 </g>
</svg>
